.
..............................Site Info...........................

 -   http://www.scenetime.com  *_*    

Scenetime .Always on time . friendly online private torrent community ..

     We care to share . Join us on  http://www.scenetime.com 

    Be the first to get new release at  http://www.scenetime.com

        Seed back for speed


...................................NFO:.................................................[img]http://i.imgrz.com/KPBkw.jpg[/img]
[code]

The.Avengers.2012.DVDRip.XviD.AC3.5.1-26K 
http://www.imdb.com/title/tt0848228/

Plot:
Nick Fury of S.H.I.E.L.D. brings together a team of super humans to form The Avengers to help save the Earth from Loki and his army.

Sources - audio-dvd9.....Thanks :P
          VIDEO-dvd9.....Thanks :P
Video
ID                                       : 0
Format                                   : MPEG-4 Visual
Format profile                           : Simple@L5
Format settings, BVOP                    : No
Format settings, QPel                    : No
Format settings, GMC                     : No warppoints
Format settings, Matrix                  : Default (H.263)
Codec ID                                 : XVID
Codec ID/Hint                            : XviD
Duration                                 : 2h 17mn
Bit rate                                 : 1 645 Kbps
Width                                    : 720 pixels
Height                                   : 400 pixels
Display aspect ratio                     : 16:9
Frame rate                               : 25.000 fps
Color space                              : YUV
Chroma subsampling                       : 4:2:0
Bit depth                                : 8 bits
Scan type                                : Progressive
Compression mode                         : Lossy
Bits/(Pixel*Frame)                       : 0.228
Stream size                              : 1.57 GiB (81%)
Writing library                          : XviD 64

Audio
ID                                       : 1
Format                                   : AC-3
Format/Info                              : Audio Coding 3
Codec ID                                 : 2000
Duration                                 : 2h 17mn
Bit rate mode                            : Constant
Bit rate                                 : 384 Kbps
Channel(s)                               : 6 channels
Sampling rate                            : 48.0 KHz
Compression mode                         : Lossy
Stream size                              : 376 MiB (19%)
Alignment                                : Aligned on interleaves
Interleave, duration                     : 8224440 ms (205 611.00 video frames)

Notes -

did my thing turned out nice enjoy...

[/code]

Screens:[IMG]http://i.imgur.com/vAiDZ.png[/IMG]
[IMG]http://i.imgur.com/9Nmwm.png[/IMG]
[IMG]http://i.imgur.com/wlUvM.png[/IMG]
[IMG]http://img801.imageshack.us/img801/1852/vlcsnap2012082020h29m57.png[/IMG]
[IMG]http://img228.imageshack.us/img228/4126/vlcsnap2012082021h05m34.png[/IMG]
[IMG]http://img585.imageshack.us/img585/1869/vlcsnap2012082021h06m19.png[/IMG]
[IMG]http://img338.imageshack.us/img338/1716/vlcsnap2012082021h06m31.png[/IMG]
[IMG]http://img38.imageshack.us/img38/2739/vlcsnap2012082021h06m39.png[/IMG]

Greetz:
XtremeEncode|FYA|ILLUMANTI|CM8|RX|VISION|HDSCENE|xTriLL|DTRG|CRYS|REMIXHD|BIDA|RX|REFILL|INSPiRAL|AXED|HOPE|Anonymous|GooN|NOIR|Blackjesus|Gabroo Punjab Deh|UNiQUE|DQ1|RESiSTANCE|HS

To all the people who have helped me  you know who you are

Anything to offer email us @: 26k@hushmail.me